# xmcd CD database file
#
# Track frame offsets:
#	150
#	17213
#	34202
#	51192
#
# Disc length: 909 seconds
#
# Revision: 3
# Processed by: cddbd v1.4PL0 Copyright (c) Steve Scherf et al.
# Submitted via: CDex 1.40Beta8
#
DISCID=2e038b04
DTITLE=Andreas Elsholz - Weil Ich Dich Liebe
DYEAR=1900
DGENRE=
TTITLE0=Weil Ich Dich Liebe, radio edit
TTITLE1=Weil Ich Dich Liebe, soft drums
TTITLE2=Weil Ich Dich Liebe, instrumental
TTITLE3=Du Bist Die Insel
EXTD=
EXTT0=
EXTT1=
EXTT2=
EXTT3=
PLAYORDER=
